<?xml version="1.0" encoding="UTF-8" standalone="no"?>
<svg
   width="573"
   height="159"
   viewBox="0 0 573 159"
   fill="none"
   version="1.1"
   id="svg30"
   sodipodi:docname="logo-text.svg"
   xml:space="preserve"
   inkscape:version="1.2.2 (732a01da63, 2022-12-09)"
   xmlns:inkscape="http://www.inkscape.org/namespaces/inkscape"
   xmlns:sodipodi="http://sodipodi.sourceforge.net/DTD/sodipodi-0.dtd"
   xmlns="http://www.w3.org/2000/svg"
   xmlns:svg="http://www.w3.org/2000/svg"><defs
     id="defs34"><rect
       x="203.6281"
       y="41.672727"
       width="361.79504"
       height="68.191736"
       id="rect2634" /><rect
       x="199.36612"
       y="44.987603"
       width="369.84545"
       height="80.030579"
       id="rect2583" /><rect
       x="187.52727"
       y="53.038017"
       width="385.47273"
       height="64.403306"
       id="rect2110" /></defs><sodipodi:namedview
     id="namedview32"
     pagecolor="#ffffff"
     bordercolor="#000000"
     borderopacity="0.25"
     inkscape:showpageshadow="2"
     inkscape:pageopacity="0.0"
     inkscape:pagecheckerboard="0"
     inkscape:deskcolor="#d1d1d1"
     showgrid="false"
     inkscape:zoom="1.2129429"
     inkscape:cx="241.97347"
     inkscape:cy="86.566318"
     inkscape:window-width="1366"
     inkscape:window-height="705"
     inkscape:window-x="-8"
     inkscape:window-y="-8"
     inkscape:window-maximized="1"
     inkscape:current-layer="svg30" /><text
     xml:space="preserve"
     id="text2108"
     style="font-style:italic;font-weight:bold;font-size:21.1213px;font-family:serif;-inkscape-font-specification:'serif, Bold Italic';white-space:pre;shape-inside:url(#rect2110);display:inline;opacity:0.98;fill:#333333;stroke:#333333" /><text
     xml:space="preserve"
     id="text2581"
     style="font-style:italic;font-weight:bold;font-size:21.1213px;font-family:serif;-inkscape-font-specification:'serif, Bold Italic';white-space:pre;shape-inside:url(#rect2583);display:inline;opacity:0.98;fill:#333333;stroke:#333333" /><text
     xml:space="preserve"
     id="text2632"
     style="font-style:italic;font-variant:normal;font-weight:bold;font-stretch:normal;font-size:42.6667px;font-family:serif;-inkscape-font-specification:'serif, Bold Italic';font-variant-ligatures:normal;font-variant-caps:normal;font-variant-numeric:normal;font-variant-east-asian:normal;white-space:pre;shape-inside:url(#rect2634);display:inline;opacity:0.98;fill:#333333;stroke:#333333"
     transform="translate(-9.834887,8.4013006)"><tspan
       x="203.62891"
       y="79.360986"
       id="tspan2763">Note Share</tspan></text><g
     style="fill:#000000"
     id="g2723"
     transform="matrix(2.5302461,0,0,2.6062898,8.6547541,2.3272925)"><g
       id="g2711">
	<path
   d="m 56.126,34.724 -2.85,-2.85 c -1.128,-1.127 -3.092,-1.127 -4.221,0 l -15.391,15.391 -2.121,7.779 -0.519,0.519 c -0.388,0.388 -0.389,1.014 -0.006,1.405 l -0.005,0.02 0.019,-0.005 c 0.194,0.19 0.446,0.288 0.699,0.288 0.256,0 0.512,-0.098 0.707,-0.293 l 0.52,-0.52 7.778,-2.121 15.39,-15.391 c 1.164,-1.165 1.164,-3.058 0,-4.222 z M 35.974,47.784 46.217,37.542 50.46,41.784 40.217,52.027 Z m -0.903,1.926 3.22,3.22 -4.428,1.208 z M 54.712,37.531 51.873,40.37 47.63,36.128 50.469,33.289 c 0.373,-0.373 1.022,-0.372 1.394,-0.001 l 2.85,2.85 c 0.383,0.383 0.383,1.009 -10e-4,1.393 z"
   id="path2703" />
	<path
   d="m 18.001,8 h 9 c 0.552,0 1,-0.447 1,-1 V 1 c 0,-0.553 -0.448,-1 -1,-1 h -9 c -0.552,0 -1,0.447 -1,1 v 6 c 0,0.553 0.447,1 1,1 z"
   id="path2705" />
	<path
   d="m 11.001,11 h 23 c 0.552,0 1,-0.447 1,-1 V 4 c 0,-0.553 -0.448,-1 -1,-1 h -4 c -0.552,0 -1,0.447 -1,1 v 5 h -13 V 4 c 0,-0.553 -0.448,-1 -1,-1 h -4 c -0.552,0 -1,0.447 -1,1 v 6 c 0,0.553 0.447,1 1,1 z"
   id="path2707" />
	<path
   d="M 44.001,32.687 V 7 c 0,-0.553 -0.448,-1 -1,-1 h -6 c -0.552,0 -1,0.447 -1,1 v 5 h -27 V 7 c 0,-0.553 -0.448,-1 -1,-1 h -6 c -0.552,0 -1,0.447 -1,1 v 50 c 0,0.553 0.448,1 1,1 H 27.628 L 30.98,45.707 Z M 8.001,16 h 13 c 0.552,0 1,0.447 1,1 0,0.553 -0.448,1 -1,1 h -13 c -0.552,0 -1,-0.447 -1,-1 0,-0.553 0.447,-1 1,-1 z m 0,6 h 29 c 0.552,0 1,0.447 1,1 0,0.553 -0.448,1 -1,1 h -29 c -0.552,0 -1,-0.447 -1,-1 0,-0.553 0.447,-1 1,-1 z m 0,6 h 14 c 0.552,0 1,0.447 1,1 0,0.553 -0.448,1 -1,1 h -14 c -0.552,0 -1,-0.447 -1,-1 0,-0.553 0.447,-1 1,-1 z m 0,6 h 24 c 0.552,0 1,0.447 1,1 0,0.553 -0.448,1 -1,1 h -24 c -0.552,0 -1,-0.447 -1,-1 0,-0.553 0.447,-1 1,-1 z m 13,14 h -13 c -0.552,0 -1,-0.447 -1,-1 0,-0.553 0.448,-1 1,-1 h 13 c 0.552,0 1,0.447 1,1 0,0.553 -0.448,1 -1,1 z m 6,-6 h -19 c -0.552,0 -1,-0.447 -1,-1 0,-0.553 0.448,-1 1,-1 h 19 c 0.552,0 1,0.447 1,1 0,0.553 -0.448,1 -1,1 z"
   id="path2709" />
</g></g></svg>
