<?xml version="1.0" encoding="UTF-8" standalone="no"?>
<svg
   width="140"
   height="140"
   viewBox="0 0 140 140"
   fill="none"
   version="1.1"
   id="svg35"
   sodipodi:docname="logo.svg"
   xml:space="preserve"
   inkscape:version="1.2.2 (732a01da63, 2022-12-09)"
   xmlns:inkscape="http://www.inkscape.org/namespaces/inkscape"
   xmlns:sodipodi="http://sodipodi.sourceforge.net/DTD/sodipodi-0.dtd"
   xmlns="http://www.w3.org/2000/svg"
   xmlns:svg="http://www.w3.org/2000/svg"><sodipodi:namedview
     id="namedview37"
     pagecolor="#ffffff"
     bordercolor="#000000"
     borderopacity="0.25"
     inkscape:showpageshadow="2"
     inkscape:pageopacity="0.0"
     inkscape:pagecheckerboard="0"
     inkscape:deskcolor="#d1d1d1"
     showgrid="false"
     inkscape:zoom="1.75"
     inkscape:cx="87.428571"
     inkscape:cy="66.857143"
     inkscape:window-width="1366"
     inkscape:window-height="705"
     inkscape:window-x="-8"
     inkscape:window-y="-8"
     inkscape:window-maximized="1"
     inkscape:current-layer="svg35" /><defs
     id="defs33"><clipPath
       id="clip0_109_2"><rect
         width="140"
         height="140"
         fill="white"
         id="rect30" /></clipPath></defs><g
     style="fill:#000000"
     id="g1719"
     transform="matrix(2.4481334,0,0,2.3940887,-1.6869268,0.78462571)"><g
       id="g1707">
	<path
   d="m 56.126,34.724 -2.85,-2.85 c -1.128,-1.127 -3.092,-1.127 -4.221,0 l -15.391,15.391 -2.121,7.779 -0.519,0.519 c -0.388,0.388 -0.389,1.014 -0.006,1.405 l -0.005,0.02 0.019,-0.005 c 0.194,0.19 0.446,0.288 0.699,0.288 0.256,0 0.512,-0.098 0.707,-0.293 l 0.52,-0.52 7.778,-2.121 15.39,-15.391 c 1.164,-1.165 1.164,-3.058 0,-4.222 z M 35.974,47.784 46.217,37.542 50.46,41.784 40.217,52.027 Z m -0.903,1.926 3.22,3.22 -4.428,1.208 z M 54.712,37.531 51.873,40.37 47.63,36.128 50.469,33.289 c 0.373,-0.373 1.022,-0.372 1.394,-0.001 l 2.85,2.85 c 0.383,0.383 0.383,1.009 -10e-4,1.393 z"
   id="path1699" />
	<path
   d="m 18.001,8 h 9 c 0.552,0 1,-0.447 1,-1 V 1 c 0,-0.553 -0.448,-1 -1,-1 h -9 c -0.552,0 -1,0.447 -1,1 v 6 c 0,0.553 0.447,1 1,1 z"
   id="path1701" />
	<path
   d="m 11.001,11 h 23 c 0.552,0 1,-0.447 1,-1 V 4 c 0,-0.553 -0.448,-1 -1,-1 h -4 c -0.552,0 -1,0.447 -1,1 v 5 h -13 V 4 c 0,-0.553 -0.448,-1 -1,-1 h -4 c -0.552,0 -1,0.447 -1,1 v 6 c 0,0.553 0.447,1 1,1 z"
   id="path1703" />
	<path
   d="M 44.001,32.687 V 7 c 0,-0.553 -0.448,-1 -1,-1 h -6 c -0.552,0 -1,0.447 -1,1 v 5 h -27 V 7 c 0,-0.553 -0.448,-1 -1,-1 h -6 c -0.552,0 -1,0.447 -1,1 v 50 c 0,0.553 0.448,1 1,1 H 27.628 L 30.98,45.707 Z M 8.001,16 h 13 c 0.552,0 1,0.447 1,1 0,0.553 -0.448,1 -1,1 h -13 c -0.552,0 -1,-0.447 -1,-1 0,-0.553 0.447,-1 1,-1 z m 0,6 h 29 c 0.552,0 1,0.447 1,1 0,0.553 -0.448,1 -1,1 h -29 c -0.552,0 -1,-0.447 -1,-1 0,-0.553 0.447,-1 1,-1 z m 0,6 h 14 c 0.552,0 1,0.447 1,1 0,0.553 -0.448,1 -1,1 h -14 c -0.552,0 -1,-0.447 -1,-1 0,-0.553 0.447,-1 1,-1 z m 0,6 h 24 c 0.552,0 1,0.447 1,1 0,0.553 -0.448,1 -1,1 h -24 c -0.552,0 -1,-0.447 -1,-1 0,-0.553 0.447,-1 1,-1 z m 13,14 h -13 c -0.552,0 -1,-0.447 -1,-1 0,-0.553 0.448,-1 1,-1 h 13 c 0.552,0 1,0.447 1,1 0,0.553 -0.448,1 -1,1 z m 6,-6 h -19 c -0.552,0 -1,-0.447 -1,-1 0,-0.553 0.448,-1 1,-1 h 19 c 0.552,0 1,0.447 1,1 0,0.553 -0.448,1 -1,1 z"
   id="path1705" />
</g></g></svg>
